<svg width="319" height="319" viewBox="0 0 319 319" fill="none" xmlns="http://www.w3.org/2000/svg">
<path d="M278.393 168.65C278.393 190.623 260.547 208.436 238.526 208.436H94.2702C64.9974 208.436 41.2635 184.753 41.2635 155.528C41.2635 126.311 64.9974 102.62 94.2702 102.62C96.8955 102.62 99.476 102.822 102.006 103.187C113.977 79.4604 138.595 63.1785 167.034 63.1785C201.445 63.1785 230.273 87.0258 237.846 119.064C238.602 122.263 239.148 125.54 239.461 128.879V128.887C261.04 129.379 278.393 146.99 278.393 168.65V168.65Z" fill="#BAC7CB" fill-opacity="0.4"/>
<g filter="url(#filter0_b_101_267)">
<path d="M278.393 168.65C278.393 190.623 260.547 208.436 238.526 208.436H94.2702C64.9974 208.436 41.2635 184.753 41.2635 155.528C41.2635 126.311 64.9974 102.62 94.2702 102.62C96.8955 102.62 99.476 102.822 102.006 103.187C113.977 79.4604 138.595 63.1785 167.034 63.1785C201.445 63.1785 230.273 87.0258 237.846 119.064C238.602 122.263 239.148 125.54 239.461 128.879V128.887C261.04 129.379 278.393 146.99 278.393 168.65V168.65Z" fill="url(#paint0_linear_101_267)"/>
</g>
<g filter="url(#filter1_b_101_267)">
<path fill-rule="evenodd" clip-rule="evenodd" d="M102.712 104.544L101.828 104.416C99.3529 104.058 96.8319 103.862 94.2702 103.862C65.6809 103.862 42.5051 126.999 42.5051 155.528C42.5051 184.065 65.6808 207.194 94.2702 207.194H238.526C259.864 207.194 277.151 189.935 277.151 168.65C277.151 147.669 260.341 130.605 239.433 130.128L238.22 130.101V128.937C237.911 125.677 237.376 122.476 236.638 119.35C229.194 87.8602 200.858 64.42 167.034 64.42C139.081 64.42 114.882 80.4224 103.115 103.747L102.712 104.544ZM239.461 128.879V128.887C261.04 129.379 278.393 146.99 278.393 168.65C278.393 190.623 260.547 208.436 238.526 208.436H94.2702C64.9974 208.436 41.2635 184.753 41.2635 155.528C41.2635 126.311 64.9974 102.62 94.2702 102.62C96.8955 102.62 99.476 102.822 102.006 103.187C113.977 79.4604 138.595 63.1785 167.034 63.1785C201.445 63.1785 230.273 87.0258 237.846 119.064C238.602 122.263 239.148 125.54 239.461 128.879Z" fill="url(#paint1_linear_101_267)"/>
</g>
<g filter="url(#filter2_f_101_267)">
<path d="M232.457 275.788C232.457 278.359 199.94 280.443 159.828 280.443C119.716 280.443 87.1996 278.359 87.1996 275.788C87.1996 273.216 119.716 271.132 159.828 271.132C199.94 271.132 232.457 273.216 232.457 275.788Z" fill="#BAC7CB"/>
</g>
<path fill-rule="evenodd" clip-rule="evenodd" d="M139.343 230.472C141.572 230.472 143.378 228.666 143.378 226.438C143.378 224.209 141.572 222.403 139.343 222.403C137.115 222.403 135.308 224.209 135.308 226.438C135.308 228.666 137.115 230.472 139.343 230.472ZM139.343 234.507C143.8 234.507 147.413 230.894 147.413 226.438C147.413 221.981 143.8 218.368 139.343 218.368C134.886 218.368 131.273 221.981 131.273 226.438C131.273 230.894 134.886 234.507 139.343 234.507Z" fill="#9DB7BF"/>
<path fill-rule="evenodd" clip-rule="evenodd" d="M180.313 230.472C182.542 230.472 184.348 228.666 184.348 226.438C184.348 224.209 182.542 222.403 180.313 222.403C178.085 222.403 176.278 224.209 176.278 226.438C176.278 228.666 178.085 230.472 180.313 230.472ZM180.313 234.507C184.77 234.507 188.383 230.894 188.383 226.438C188.383 221.981 184.77 218.368 180.313 218.368C175.856 218.368 172.243 221.981 172.243 226.438C172.243 230.894 175.856 234.507 180.313 234.507Z" fill="#9DB7BF"/>
<path fill-rule="evenodd" clip-rule="evenodd" d="M221.283 230.472C223.512 230.472 225.318 228.666 225.318 226.438C225.318 224.209 223.512 222.403 221.283 222.403C219.055 222.403 217.248 224.209 217.248 226.438C217.248 228.666 219.055 230.472 221.283 230.472ZM221.283 234.507C225.74 234.507 229.353 230.894 229.353 226.438C229.353 221.981 225.74 218.368 221.283 218.368C216.826 218.368 213.213 221.981 213.213 226.438C213.213 230.894 216.826 234.507 221.283 234.507Z" fill="#9DB7BF"/>
<path fill-rule="evenodd" clip-rule="evenodd" d="M98.3732 230.472C100.602 230.472 102.408 228.666 102.408 226.438C102.408 224.209 100.602 222.403 98.3732 222.403C96.1448 222.403 94.3383 224.209 94.3383 226.438C94.3383 228.666 96.1448 230.472 98.3732 230.472ZM98.3732 234.507C102.83 234.507 106.443 230.894 106.443 226.438C106.443 221.981 102.83 218.368 98.3732 218.368C93.9163 218.368 90.3033 221.981 90.3033 226.438C90.3033 230.894 93.9163 234.507 98.3732 234.507Z" fill="#9DB7BF"/>
<path fill-rule="evenodd" clip-rule="evenodd" d="M159.828 251.578C162.056 251.578 163.863 249.772 163.863 247.543C163.863 245.315 162.056 243.508 159.828 243.508C157.599 243.508 155.793 245.315 155.793 247.543C155.793 249.772 157.599 251.578 159.828 251.578ZM159.828 255.613C164.285 255.613 167.898 252 167.898 247.543C167.898 243.086 164.285 239.474 159.828 239.474C155.371 239.474 151.758 243.086 151.758 247.543C151.758 252 155.371 255.613 159.828 255.613Z" fill="#9DB7BF"/>
<path fill-rule="evenodd" clip-rule="evenodd" d="M200.798 251.578C203.026 251.578 204.833 249.772 204.833 247.543C204.833 245.315 203.026 243.508 200.798 243.508C198.569 243.508 196.763 245.315 196.763 247.543C196.763 249.772 198.569 251.578 200.798 251.578ZM200.798 255.613C205.255 255.613 208.868 252 208.868 247.543C208.868 243.086 205.255 239.474 200.798 239.474C196.341 239.474 192.728 243.086 192.728 247.543C192.728 252 196.341 255.613 200.798 255.613Z" fill="#9DB7BF"/>
<path fill-rule="evenodd" clip-rule="evenodd" d="M118.858 251.578C121.087 251.578 122.893 249.772 122.893 247.543C122.893 245.315 121.087 243.508 118.858 243.508C116.63 243.508 114.823 245.315 114.823 247.543C114.823 249.772 116.63 251.578 118.858 251.578ZM118.858 255.613C123.315 255.613 126.928 252 126.928 247.543C126.928 243.086 123.315 239.473 118.858 239.473C114.401 239.473 110.788 243.086 110.788 247.543C110.788 252 114.401 255.613 118.858 255.613Z" fill="#9DB7BF"/>
<defs>
<filter id="filter0_b_101_267" x="10.2257" y="32.1407" width="299.205" height="207.333" filterUnits="userSpaceOnUse" color-interpolation-filters="sRGB">
<feFlood flood-opacity="0" result="BackgroundImageFix"/>
<feGaussianBlur in="BackgroundImageFix" stdDeviation="15.5189"/>
<feComposite in2="SourceAlpha" operator="in" result="effect1_backgroundBlur_101_267"/>
<feBlend mode="normal" in="SourceGraphic" in2="effect1_backgroundBlur_101_267" result="shape"/>
</filter>
<filter id="filter1_b_101_267" x="10.2257" y="32.1407" width="299.205" height="207.333" filterUnits="userSpaceOnUse" color-interpolation-filters="sRGB">
<feFlood flood-opacity="0" result="BackgroundImageFix"/>
<feGaussianBlur in="BackgroundImageFix" stdDeviation="15.5189"/>
<feComposite in2="SourceAlpha" operator="in" result="effect1_backgroundBlur_101_267"/>
<feBlend mode="normal" in="SourceGraphic" in2="effect1_backgroundBlur_101_267" result="shape"/>
</filter>
<filter id="filter2_f_101_267" x="72.3014" y="256.234" width="175.053" height="39.1077" filterUnits="userSpaceOnUse" color-interpolation-filters="sRGB">
<feFlood flood-opacity="0" result="BackgroundImageFix"/>
<feBlend mode="normal" in="SourceGraphic" in2="BackgroundImageFix" result="shape"/>
<feGaussianBlur stdDeviation="7.44908" result="effect1_foregroundBlur_101_267"/>
</filter>
<linearGradient id="paint0_linear_101_267" x1="78.8193" y1="88.6296" x2="247.044" y2="208.436" gradientUnits="userSpaceOnUse">
<stop offset="0.416176" stop-color="white" stop-opacity="0.7"/>
<stop offset="1" stop-color="white" stop-opacity="0"/>
</linearGradient>
<linearGradient id="paint1_linear_101_267" x1="23.105" y1="101.456" x2="108.008" y2="162.523" gradientUnits="userSpaceOnUse">
<stop stop-color="white"/>
<stop offset="1" stop-color="white" stop-opacity="0"/>
</linearGradient>
</defs>
</svg>
